<?xml version="1.0" standalone="no"?>
<!DOCTYPE svg PUBLIC "-//W3C//DTD SVG 20010904//EN"
 "http://www.w3.org/TR/2001/REC-SVG-20010904/DTD/svg10.dtd">
<svg version="1.0" xmlns="http://www.w3.org/2000/svg"
 width="96.000000pt" height="96.000000pt" viewBox="0 0 96.000000 96.000000"
 preserveAspectRatio="xMidYMid meet">
<metadata>
Created by potrace 1.14, written by Peter Selinger 2001-2017
</metadata>
<g transform="translate(0.000000,96.000000) scale(0.100000,-0.100000)"
fill="#000000" stroke="none">
<path d="M0 480 l0 -480 480 0 480 0 0 480 0 480 -480 0 -480 0 0 -480z m530
159 c0 -42 3 -52 20 -56 11 -3 20 -14 20 -24 0 -12 -7 -19 -20 -19 -18 0 -20
-7 -20 -67 0 -72 5 -86 33 -96 9 -3 17 -13 17 -22 0 -20 -63 -20 -80 0 -7 8
-15 53 -18 100 -2 47 -9 85 -13 85 -15 0 -10 38 6 44 11 4 15 20 15 56 0 43 3
50 20 50 17 0 20 -7 20 -51z m-220 -129 l0 -170 -30 0 -30 0 0 140 c0 87 -4
140 -10 140 -5 0 -10 11 -10 24 0 25 13 33 58 35 22 1 22 1 22 -169z m120 0
l0 -170 -30 0 -30 0 0 136 c0 112 -3 139 -16 148 -31 23 -2 52 54 55 22 1 22
1 22 -169z m219 20 c6 -28 11 -58 11 -66 0 -8 4 -13 9 -10 4 3 11 33 15 66 6
50 10 60 26 60 24 0 24 5 0 -127 -26 -134 -37 -170 -55 -177 -23 -8 -45 4 -45
25 0 10 7 19 15 19 20 0 19 35 -4 128 -35 142 -34 132 -7 132 21 0 26 -7 35
-50z"/>
</g>
</svg>
